<?xml version="1.0" encoding="UTF-8"?>
<svg version="1.1" xmlns="http://www.w3.org/2000/svg" width="543" height="538">
<path d="M0 0 C33.33 0 66.66 0 101 0 C112.56585197 21.97511875 112.56585197 21.97511875 117.73948306 32.31258804 C118.12282133 33.07796592 118.5061596 33.8433438 118.90111419 34.63191495 C119.29864687 35.42573485 119.69617954 36.21955476 120.10575867 37.03742981 C120.97290879 38.76554474 121.84021592 40.49358088 122.70766383 42.22154635 C125.06027331 46.90921593 127.4105047 51.59807403 129.76025712 56.28717625 C131.78296444 60.32286232 133.80709344 64.35783464 135.8312104 68.39281384 C143.0623557 82.80789389 150.28780188 97.22582767 157.51171875 111.64453125 C158.08199327 112.78277272 158.6522678 113.92101419 159.23982337 115.09374782 C170.2653404 137.10059754 181.28847943 159.10863832 192.30676929 181.11910742 C195.09660469 186.69215628 197.88654079 192.26515473 200.67651367 197.83813477 C200.98474285 198.45382993 201.29297202 199.0695251 201.61054148 199.70387769 C211.62939378 219.7165764 221.6596604 239.72352672 231.69614845 259.72738607 C242.32350431 280.90904512 252.93912167 302.09654031 263.54193717 323.29049605 C269.31664401 334.83274379 275.09678329 346.3722023 280.89063072 357.90485573 C285.81630253 367.70943384 290.73123476 377.51929769 295.63194992 387.33637563 C298.13309917 392.34580485 300.63944208 397.35245697 303.1597023 402.35230255 C305.46444349 406.92487885 307.75442723 411.50452603 310.03266928 416.09036013 C310.86119887 417.75151009 311.69519909 419.4099445 312.5350674 421.06539056 C313.67244429 423.30918861 314.78980644 425.56187776 315.90256786 427.81795979 C316.40277645 428.78728156 316.40277645 428.78728156 316.91309026 429.7761856 C318.92835504 433.93198732 319.23541801 436.5545166 318 441 C317.13290501 443.23476124 317.13290501 443.23476124 316.07093811 445.35932922 C315.66857437 446.17389084 315.26621063 446.98845245 314.85165405 447.82769775 C314.40955597 448.70222595 313.96745789 449.57675415 313.51196289 450.4777832 C313.04685806 451.41339584 312.58175323 452.34900848 312.10255432 453.31297302 C310.56715317 456.39625646 309.02024292 459.4735983 307.47265625 462.55078125 C306.40217884 464.69189101 305.33223477 466.8332675 304.26280212 468.97489929 C302.02247528 473.45693656 299.77659839 477.93613477 297.52661133 482.41333008 C294.63731069 488.16348594 291.76055689 493.91980931 288.88771915 499.67820454 C286.68153639 504.09750914 284.46948788 508.51385619 282.25555229 512.92928123 C281.1921153 515.05162786 280.13036307 517.17481951 279.07029915 519.29885292 C277.59186598 522.25861552 276.10576781 525.21439708 274.61743164 528.16918945 C274.17735779 529.05383881 273.73728394 529.93848816 273.28387451 530.84994507 C272.87869095 531.65040756 272.47350739 532.45087006 272.05604553 533.27558899 C271.70521943 533.9748113 271.35439333 534.6740336 270.99293613 535.39444447 C270 537 270 537 268 538 C242.44731059 486.92884167 216.89557196 435.85720773 191.34912109 384.78292847 C190.97131143 384.02758526 190.59350177 383.27224205 190.20424333 382.49400965 C181.99436638 366.08024091 173.7846673 349.6663832 165.57515156 333.25243378 C161.5494831 325.20359164 157.52377532 317.15476917 153.49804688 309.10595703 C153.09742903 308.30498287 152.69681119 307.5040087 152.28405342 306.67876259 C139.28774797 280.69468162 126.28884399 254.71190166 113.28859863 228.7297917 C99.93446679 202.04037496 86.58294401 175.34965467 73.2347251 148.65728017 C71.3514354 144.89127713 69.46811574 141.12528908 67.58477783 137.35931015 C67.02875134 136.24745943 67.02875134 136.24745943 66.46149199 135.11314708 C60.48299107 123.15851306 54.50172331 111.20526541 48.51943189 99.25252785 C42.51219887 87.24981002 36.5078542 75.24565098 30.50649595 63.23999466 C26.93642033 56.09831678 23.36409448 48.95777477 19.78860527 41.81880562 C17.12581822 36.50156876 14.467163 31.18227354 11.81017041 25.86213861 C10.72948088 23.69990817 9.64741386 21.53836559 8.56389308 19.37755252 C7.1007457 16.45918611 5.64245866 13.53844375 4.18545532 10.6170063 C3.75549074 9.76233117 3.32552617 8.90765604 2.88253236 8.02708167 C2.49837655 7.25427546 2.11422074 6.48146926 1.71842384 5.68524468 C1.38400138 5.01671172 1.04957893 4.34817877 0.70502245 3.65938724 C0 2 0 2 0 0 Z " fill="#FFFEFE" transform="translate(0,0)"/>
<path d="M0 0 C1.34111343 0.00539291 1.34111343 0.00539291 2.70932007 0.01089478 C3.64580887 0.01074875 4.58229767 0.01060272 5.54716492 0.01045227 C8.65845007 0.01115179 11.76967617 0.01894602 14.88095093 0.02676392 C17.0318651 0.02862796 19.18277971 0.03005192 21.33369446 0.03105164 C27.00711225 0.03487792 32.68050463 0.04470914 38.35391235 0.05575562 C44.13831234 0.06596736 49.92271641 0.07054875 55.7071228 0.07559204 C67.06585796 0.08633131 78.42457421 0.10340906 89.78329468 0.12442017 C88.32249174 4.9248985 86.31925974 9.32032646 84.05892944 13.78433228 C83.49978096 14.90065788 83.49978096 14.90065788 82.92933655 16.03953552 C81.69812894 18.4954732 80.46135406 20.94856441 79.22470093 23.40176392 C78.35668964 25.1315022 77.48909757 26.8614509 76.62190247 28.59159851 C74.33287705 33.15635059 72.03942778 37.71886396 69.74465942 42.2807312 C65.67042538 50.38102451 61.60216592 58.48431566 57.53720093 66.58926392 C57.09806492 67.46452099 56.65892891 68.33977806 56.20648575 69.24155807 C51.01065196 79.60248214 45.88263893 89.9863519 40.9315033 100.4669342 C36.74542508 109.28961954 32.3759147 118.01880726 28.00204468 126.74942017 C27.41321912 127.9249026 27.41321912 127.9249026 26.81249809 129.12413216 C23.56159267 135.61191615 20.30546721 142.09707739 17.04922485 148.58218384 C14.21863905 154.22008151 11.38997221 159.8589355 8.56454468 165.49942017 C8.171577 166.28383484 7.77860931 167.06824951 7.37373352 167.87643433 C2.92893238 176.75487152 -1.47076643 185.64866997 -5.71670532 194.62442017 C-10.34164509 204.40136353 -15.15378945 214.07983418 -19.99795532 223.74942017 C-20.39031876 224.53270691 -20.78268219 225.31599365 -21.18693542 226.12301636 C-24.43802949 232.61117237 -27.69434562 239.09670463 -30.95077515 245.58218384 C-33.78136095 251.22008151 -36.61002833 256.85893523 -39.43545532 262.49942017 C-40.02518725 263.67660299 -40.02518725 263.67660299 -40.62683296 264.87756729 C-45.05972301 273.73221854 -49.44799719 282.60192515 -53.68154907 291.55410767 C-58.41755126 301.56828103 -63.35313453 311.47834205 -68.31436157 321.38223267 C-68.71790737 322.18788414 -69.12145317 322.99353561 -69.53722763 323.82360077 C-72.44837132 329.63363761 -75.36345087 335.4416962 -78.27920532 341.24942017 C-81.22968759 347.12664454 -84.17877127 353.00456315 -87.12454033 358.88415146 C-88.29171914 361.21207267 -89.46131049 363.53877073 -90.63102722 365.86541748 C-91.34337925 367.28649098 -92.0556199 368.70762031 -92.76773071 370.1288147 C-93.08923599 370.76665894 -93.41074127 371.40450317 -93.74198914 372.06167603 C-95.39344449 375.36419629 -96.90406797 378.67268616 -98.21670532 382.12442017 C-98.87670532 382.12442017 -99.53670532 382.12442017 -100.21670532 382.12442017 C-106.79477373 369.20192156 -113.34962436 356.26787937 -119.87790108 343.32015038 C-122.90953724 337.30843419 -125.94856028 331.30067301 -129.00527954 325.30166626 C-131.95418939 319.5141905 -134.8821246 313.71639729 -137.79735947 307.91188431 C-138.91397724 305.69715082 -140.03763989 303.48595495 -141.16836929 301.27839279 C-142.74891802 298.18970312 -144.30412756 295.08947293 -145.85391235 291.98526001 C-146.32863983 291.07175781 -146.80336731 290.15825562 -147.29248047 289.21707153 C-150.36760318 282.96568538 -150.36760318 282.96568538 -149.61470032 278.76820374 C-148.92269279 277.45953087 -148.92269279 277.45953087 -148.21670532 276.12442017 C-147.73538399 275.05818672 -147.73538399 275.05818672 -147.24433899 273.97041321 C-146.90352798 273.30798111 -146.56271698 272.64554901 -146.21157837 271.96304321 C-145.81818771 271.19324631 -145.42479706 270.4234494 -145.01948547 269.63032532 C-144.59343521 268.8072438 -144.16738495 267.98416229 -143.72842407 267.13613892 C-143.2781636 266.2579097 -142.82790314 265.37968048 -142.36399841 264.47483826 C-140.88133977 261.58515667 -139.39275927 258.69856869 -137.90420532 255.81192017 C-136.85951454 253.77828167 -135.81524971 251.74442432 -134.77139282 249.71035767 C-132.62812707 245.53529421 -130.48267311 241.36136704 -128.33535767 237.18838501 C-124.20898893 229.16792921 -120.0990272 221.13909295 -115.98928833 213.11010742 C-114.70589681 210.60330832 -113.42185834 208.09684167 -112.13760376 205.59048462 C-105.63417509 192.89803832 -99.14278758 180.19946139 -92.65420532 167.49942017 C-85.11427075 152.7416844 -77.56211442 137.99030468 -69.9961853 123.24588013 C-63.73233594 111.03820245 -57.48141113 98.82397162 -51.23852539 86.6055603 C-47.37971854 79.05321221 -43.52004139 71.50130876 -39.66043091 63.94937134 C-38.69529733 62.06088557 -37.73020969 60.17237633 -36.76516724 58.28384399 C-33.92578478 52.72748068 -31.08522679 47.17172119 -28.24304199 41.61679077 C-27.37148616 39.91293498 -26.50031152 38.20888414 -25.62957764 36.50460815 C-21.02013446 27.4831605 -16.37783735 18.47974511 -11.67373657 9.50723267 C-11.24251999 8.68214203 -10.81130341 7.85705139 -10.36701965 7.00695801 C-9.96912735 6.25053009 -9.57123505 5.49410217 -9.1612854 4.7147522 C-8.80923538 4.0441275 -8.45718536 3.37350281 -8.09446716 2.68255615 C-6.1294809 -0.80553784 -3.76784894 0.00640133 0 0 Z " fill="#FFFEFE" transform="translate(453.2167053222656,-0.124420166015625)"/>
</svg>
